<svg
  width="656"
  height="240"
  viewBox="0 0 656 240"
  fill="none"
  xmlns="http://www.w3.org/2000/svg"
>
  <g clip-path="url(#clip0_4_3)">
    <path
      d="M120 240C186.274 240 240 186.274 240 120C240 53.7258 186.274 0 120 0C53.7258 0 0 53.7258 0 120C0 186.274 53.7258 240 120 240Z"
      fill="#FF7139"
    />
    <path
      d="M233.795 55.3C233.798 55.3 233.8 55.2978 233.8 55.2952C233.8 55.2089 233.8 55.1329 233.796 55.0597C233.793 55.0079 233.771 54.9593 233.736 54.9211L233.701 54.8826C233.687 54.8675 233.672 54.8536 233.656 54.8411C233.639 54.828 233.616 54.811 233.6 54.8C233.58 54.7822 233.559 54.7656 233.537 54.7504C233.422 54.668 233.29 54.6033 233.15 54.58C232.74 54.48 232.33 54.65 231.93 54.93C231.79 55.03 231.65 55.13 231.52 55.23C229.68 56.66 228.32 58.82 226.98 60.69C225.35 62.97 223.83 65.34 222.42 67.76C219.4 72.96 217.1 78.53 214 83.7C210 89.9 202.9 96.4 195.1 96.9C194.326 96.9299 193.595 96.8087 192.881 96.6107C190.546 95.9631 188.75 94.0679 187.38 92.07C186.659 91.0312 186.257 89.8107 185.98 88.5771C185.165 84.9546 183.95 80.0413 182.1 74.5C181.3 72.3 173.4 49.3 152.8 27.9C148.4 23.3 143 18.7 138.3 19.6C137 19.8 132.8 24.6 129.2 25.9C126.1 27 122.3 27.4 119.7 26.6C117.9 26.1 105.6 24.4 102.6 25.6C98.51 27.24 95.9 30.81 93.44 34.27C88.84 40.73 84.15 46.8 80.9 54.1C78.6 59.2 71.9 79.7 72.9 86.3C72.9906 86.7529 73.1684 87.1956 73.2002 87.6564C73.2717 88.694 73.7237 89.748 74.69 90.69C87.61 103.24 104.74 108.47 122.4 110.47C123.45 110.74 124.45 110.9 125.09 111C126.85 111.2 128.61 111.2 130.39 111.17C134.97 111.46 139.54 111.58 144.05 111.6C147.78 111.74 151.52 111.84 155.29 111.9C162.49 112 169.89 111.7 176.79 110C185.167 108.118 193.012 104.818 201.326 102.685C202.363 102.419 203.386 102.083 204.34 101.596C216.439 95.4294 223.394 84.3387 228.59 72.6C229.26 70.84 229.73 68.97 230.15 67.07C230.818 64.0124 231.364 60.833 232.476 57.8037C232.55 57.6031 232.684 57.4394 232.84 57.2936C232.842 57.292 232.844 57.2903 232.845 57.2886C232.96 57.1799 233.055 57.0523 233.2 56.99C233.28 56.9579 233.324 56.8654 233.378 56.7976C233.473 56.677 233.593 56.5065 233.67 56.4208C233.683 56.4066 233.681 56.411 233.693 56.3962C233.761 56.3115 233.802 56.1829 233.804 56.0743C233.81 55.7786 233.807 55.5242 233.79 55.3052C233.79 55.3024 233.792 55.3 233.795 55.3Z"
      fill="#E4E4E4"
    />
    <path
      d="M190.3 95.4C190.294 95.4 190.289 95.3961 190.288 95.3905C190.113 94.5809 189.269 93.4279 189 92.9C188.63 92.15 188.12 91.16 187.38 90.71C186.7 90.29 185.67 90.28 184.9 90.15C182.48 89.76 180.05 89.55 177.6 89.4C171 89 166.7 89.5 141.6 93.9C132.6 95.5 126.9 96.5 119 98.5C115.86 99.21 112.83 100.25 109.66 100.79C107.48 101.16 112.02 105.07 112.93 105.49C115.36 106.63 117.62 105.76 120.09 105.47C122.1 105.23 124.13 105.3 126.16 105.25C128.34 105.19 129.92 104.43 131.99 103.87C135.69 102.86 139.43 101.99 143.19 101.28C148.97 100.19 154.83 99.48 160.71 99.2C165.11 99.1 169.61 98.6 174.11 98.5C178.71 98.35 183.57 98.19 188.04 97.02C188.67 96.86 189.94 96.59 190.27 95.95C190.349 95.8024 190.35 95.616 190.312 95.41C190.311 95.4042 190.306 95.4 190.3 95.4Z"
      fill="#C9C9C9"
    />
    <path
      d="M233.21 56.99C232.7 59.69 231.34 63.76 230.5 66.1C230.39 66.42 230.27 66.74 230.16 67.07C227.63 74.23 224.59 82.31 217.7 89.2C211.7 95.3 204.9 98.7 198.9 100.3C177.89 105.95 155.21 109.28 136.43 111.24H136.42C112.691 113.715 95.1748 113.999 95.1002 114C95.0979 114 95.0988 114 95.0964 114C30.6993 115 11.3999 118.7 8.3 110.6C7.11 107.52 8.45 103.73 11.12 99.97C11.1768 99.8943 11.2372 99.8219 11.2926 99.7452C15.1334 94.4348 21.611 89.2282 27.3 86.2C42.7 78.1 59.1 82.3 68.5 84.7C79.2 87.4 78 89.4 103.3 98.6C112.708 101.829 118.278 103.629 125.086 104.729C125.089 104.73 125.091 104.73 125.094 104.73C125.098 104.73 125.102 104.73 125.106 104.731C125.234 104.761 125.372 104.78 125.5 104.8C134.3 106.2 141.7 106.2 146.7 106.2C151.7 106.1 158.2 105.8 166.4 104.7C174.4 103.7 204.7 99.6 216.2 87.5C220.8 82.8001 223 78.4001 223 78.4C223 78.4 223 78.4 223 78.4C224.4 75.6 224.3 74.7 226.6 69.9C228.3 66.4 228.9 65.8 229.7 63.4C230.374 61.1988 230.961 58.2256 231.427 55.7295C231.487 55.4079 231.664 55.1201 231.93 54.93C232.33 54.65 232.74 54.48 233.15 54.58C233.285 54.6025 233.374 54.7232 233.392 54.8584C233.459 55.3423 233.383 56.0915 233.21 56.99Z"
      fill="#C9C9C9"
    />
    <path
      d="M233.674 54.86C233.678 54.86 233.681 54.8616 233.684 54.8644L233.743 54.9283C233.773 54.9619 233.793 55.0044 233.795 55.0499C233.8 55.1275 233.8 55.2078 233.8 55.3C233.82 55.56 233.82 55.87 233.8 56.24C233.64 61.91 230.06 80.21 223.49 89.7C210.29 108.5 117.09 187.5 44.49 153.6C28.79 146.3 2.69 128.5 6.19 110.4C6.93 106.42 8.74 102.95 11.11 99.97C11.14 99.93 11.17 99.89 11.2 99.86C19.06 90.03 32.87 85.51 33.79 85.2C48.69 80.6 62.59 84.8 75.39 88.7C88.29 92.6 89.59 95.6 105.49 100.6C109.35 101.77 115.26 103.61 122.75 105.1C126.13 105.77 129.82 106.37 133.79 106.8C160.49 109.8 181.19 103.7 190.49 101C202.99 97.3 209.19 95.4 214.69 90.6C228.191 78.6405 231.511 58.38 233.056 54.7629C233.106 54.6466 233.23 54.5872 233.34 54.65L233.667 54.8578C233.669 54.8592 233.671 54.86 233.674 54.86Z"
      fill="#D9D9D9"
    />
    <path
      d="M77.33 76.01C82.63 61.71 95.43 61.01 102.23 46.41C104.93 40.61 105.63 35.01 104.93 34.81C104.23 34.61 102.33 41.51 96.93 49.21C90.03 58.91 85.23 58.11 80.23 66.51C78.3672 69.7204 77.1956 73.0093 76.4599 75.8102C75.4163 79.7831 75.8763 79.8518 77.33 76.01Z"
      fill="#C9C9C9"
    />
    <path
      d="M196.305 105.495C196.302 105.498 196.297 105.499 196.294 105.497C194.095 104.301 191.699 104.8 190.7 104.9C179.1 107 178.7 105.1 170 108.1C162.2 110.7 161.7 112.3 155.4 113.3C150.7 114 146.9 113.7 145.2 113.4C139.1 112.5 136.3 110.4 132.3 109C123.7 106.1 115.6 108.9 103 113.1C91.1 117.1 93.1 118.6 85 120.7C80.67 121.89 73.6 122.5 69.74 125.46C67.49 127.19 64.96 131.04 63.36 133.39C61.5 136.12 60.3 138.72 59.2 143.04C58.2 146.96 58.2 151.01 59.52 154.49C60.5545 157.223 66.148 157.801 69.4213 157.902C70.9799 157.95 72.6268 158.682 74.11 158.2C80.47 156.14 89.93 141.56 95.7 141C110.4 139.5 125 137.8 139.8 136.6C153.9 135.5 168.2 134 181.9 131C183.6 130.6 185 129.8 186.7 129.4C189.54 128.57 191.96 129.26 193.89 126.76C194.25 126.29 194.45 125.71 194.47 125.12C194.5 124.22 194.51 122.89 194.51 122.23C194.51 122 194.48 121.78 194.43 121.56C193.945 119.482 194.338 117.351 193.951 115.453C193.865 115.026 194.217 114.582 194.609 114.391C194.628 114.381 194.619 114.385 194.636 114.373C197.628 112.465 200.993 108.086 196.316 105.494C196.313 105.492 196.308 105.492 196.305 105.495Z"
      fill="#C9C9C9"
    />
    <path
      d="M206.44 178.16C206.07 178.99 205.71 179.61 205.5 179.95C205.46 180.01 205.43 180.06 205.4 180.1C204.83 180.75 204.23 181.42 203.62 182.1C195.06 191.43 181.48 203.18 162 211.2C151 215.8 129.6 224.6 105 218.5C97.09 216.54 89.33 213.22 82.96 209.41C78.0751 206.493 74.0085 203.297 71.2886 200.22C71.2828 200.213 71.2764 200.203 71.2708 200.196C71.2551 200.178 71.241 200.16 71.2251 200.142C68.472 196.992 67.142 193.973 67.8 191.5C69.6 185 85 188.8 111.7 176.9C124.3 171.3 124.7 169.4 135.7 165.2C147 160.9 158.4 159.9 170.5 159.9C174.8 159.9 179.5 159.5 183.8 160.1C190.5 161.1 196.7 159.6 202.4 164.2C203.8 165.3 205.7 166.5 206.8 168.8C208.47 172.27 207.43 175.94 206.44 178.16Z"
      fill="#4ABB64"
    />
    <path
      d="M195.85 108.06C195.06 107.03 193.2 107.5 192.07 107.48C184.01 107.31 175.11 106.53 168.2 111.5C165.42 113.35 162.4 114.81 159.32 116.1C155.79 117.59 152.39 119.2 148.53 119.46C144.67 119.72 140.05 120.1 136.1 119.6C125.04 118.19 113 117.02 102.2 120.3C99.48 121.13 96.32 121.12 93.52 121.75C90.6 122.4 87.72 123.24 84.94 124.36C79.33 126.6 74.62 129.94 70.72 134.54C68.87 136.72 67.19 138.81 66.15 141.51C65.11 144.21 64.52 147.29 63.8 150.21C61.19 161.15 58.65 172.86 60.3 183.91C61.11 189.32 65.1 194.01 68.8 198.11C72.1 201.71 77.5 202.81 80.3 206.61C88.3 209.31 95 203.71 101.4 200.01C105.8 197.41 110.3 195.41 114.3 192.21C122.5 186.51 131.6 182.61 141.4 179.91C151.13 176.68 165.96 173.35 171.9 171.21C184.9 167.31 190.3 165.41 193.5 168.11C195.2 169.51 197.8 173.61 202 179.71C202.3 179.91 202.7 180.71 203.4 180.81C204.4 181.01 205.9 180.21 208.5 176.21C212.4 170.41 214.6 167.41 214 163.61C213.67 161.49 212.44 159.53 211.18 157.85C208.95 154.88 207.69 151.4 205.57 148.37C203.45 145.34 200.81 142.85 199.11 139.71C196.51 134.91 195.31 129.11 193.91 123.81C192.79 119.57 192.28 114.74 194.54 110.78C194.99 110 196.46 109.83 196.14 108.67C196.07 108.43 195.98 108.24 195.85 108.08V108.06Z"
      fill="#37A751"
    />
    <path
      d="M207.63 179.05C207.73 179.95 206.83 180.95 206.73 181.05C206.63 181.05 205.93 181.85 205.03 182.05C204.58 182.17 204.1 182.18 203.62 182.1C201.28 181.75 198.73 179.53 198.4 179.2C197.2 178.1 196.6 176.7 196.3 176.1C194.9 173.1 195.3 171.6 194.5 170.5C192.5 167.3 183.9 168.8 182.6 169C177.48 169.93 172.75 171.08 168.52 172.29C155.05 176.14 146.6 180.6 146.6 180.6C135.4 186.5 124.83 191.95 118.3 197.1C116.36 198.75 97.94 214.11 82.96 209.41C78.07 206.49 74 203.29 71.28 200.21H71.29C72.12 200.6 73.49 201.23 76.2 202.2C81.7 204.3 87 203.6 90.9 202.6C102.1 199.7 121.6 187.5 129.7 182.8C129.7 182.8 149.5 171.2 181.2 165.4C183.3 165 195.4 162.8 198.4 167.5C200.2 170.2 198.3 174.2 201 176.3C202.54 177.49 204.98 177.68 206.44 178.16C206.63 178.23 206.81 178.3 206.96 178.37C207.31 178.55 207.55 178.76 207.63 179.05Z"
      fill="#2F8D45"
    />
    <path
      d="M146 144.4C145.7 143.4 145.1 141.5 144.2 137.6C143.853 136.037 143.675 135.002 143.602 134.299C143.496 133.293 143.765 132.258 144.351 131.434C145.743 129.476 148.416 129.019 149 127.1C150.2 123.7 144.8 118.9 141 116.3C129.7 108.7 116 111.5 115.2 111.6C106.2 113.5 93.4 119.9 90.7 132.1C90.4 133.3 89 140.4 92.9 147.6C100.6 161.4 123 165.6 135.7 158.2C140.2 155.5 146.9 149.4 146 144.4Z"
      fill="#2F8D45"
    />
    <path
      d="M132.8 146C133.8 144.8 135.1 142.6 136.1 139.8C136.6 138.1 138.2 133.2 135.7 128C133.4 123 128.7 120.9 127.2 120.3C121.1 117.6 115.2 119.2 112.6 119.8C109.2 120.7 103.3 122.3 100.7 127.4C99.38 129.85 99.19 132.65 99.6 135.36C100.01 138.07 100.56 140.8 101.75 143.21C104.22 148.2 109.24 150.06 114.4 151C117.3 151.5 122 152.5 126.9 150.3C129.8 149.1 131.8 147.3 132.8 146Z"
      fill="black"
    />
    <path
      d="M129.99 124.43C131.39 125.83 137.69 134.73 132.59 142.03C131.29 143.9 130.24 145.49 128.3 146.87C124.89 149.3 121.59 150.11 117.46 149.48C112.86 148.78 106.87 147.44 104.19 143.13C101.19 138.43 102.49 132.33 104.09 128.63C105.69 124.43 110.69 122.83 113.69 121.93C117.89 120.83 125.79 120.73 129.99 124.43Z"
      fill="#DDA26A"
    />
    <path
      d="M131.442 130.625C131.206 130.243 130.657 129.812 130.227 129.684C128.815 129.266 128.777 128.593 128.961 127.132C128.979 126.99 128.962 126.855 128.89 126.73C128.59 126.13 126.99 126.23 126.89 126.23C124.49 126.33 123.39 128.33 122.69 127.93C122.09 127.63 123.29 125.83 122.39 124.73C121.69 124.03 120.69 123.93 119.89 124.03C118.29 124.23 118.19 125.53 116.89 125.73C115.39 126.03 114.69 124.43 112.89 124.63C111.99 124.73 110.99 125.33 110.59 126.23C110.09 127.23 110.59 127.73 110.09 128.33C109.39 129.03 108.29 128.43 107.59 129.03C106.99 129.53 107.19 130.53 107.29 131.43C107.69 133.83 108.69 133.93 108.69 135.43C108.69 136.232 108.329 137.199 108.002 137.915C107.687 138.604 107.26 139.248 107.034 139.97C106.98 140.144 106.956 140.326 106.99 140.53C107.09 141.23 107.69 141.73 108.39 141.93C109.89 142.43 111.29 141.13 111.99 141.73C112.59 142.23 111.79 143.33 112.49 144.23C112.99 144.93 114.49 145.13 115.49 144.73C116.89 144.23 116.89 142.63 117.79 142.53C118.99 142.43 119.19 145.23 121.19 145.63C121.79 145.73 122.49 145.63 122.99 145.23C124.09 144.33 123.59 142.83 124.39 142.63C125.19 142.53 125.69 143.63 126.99 143.63C127.39 143.63 128.29 143.43 128.59 142.93C129.09 142.03 127.79 141.13 128.29 140.43C128.69 139.73 129.69 140.13 130.39 139.53C131.19 138.73 130.09 137.63 130.49 135.63C130.89 133.93 131.79 133.73 131.79 132.23C131.79 131.851 131.79 131.186 131.442 130.625Z"
      fill="#FBB778"
    />
    <path
      d="M106.89 137.63C108.59 139.13 110.69 139.23 115.49 139.33C117.64 139.36 119.79 139.23 121.93 139.05C123.93 138.88 125.93 138.63 127.91 138.26C129.47 137.97 132.05 137.89 132.64 136.06C133.23 134.23 131.6 132.39 129.89 132.23C120.59 132.03 109.69 131.73 107.69 132.43C104.95 133.39 104.55 135.88 106.89 137.63Z"
      fill="black"
    />
    <path
      d="M198.05 112.75C198.05 111.85 197.5 109.1 195.1 107.5C192.1 105.4 187.4 107.6 186 108.2C178.6 111.7 172.4 122.4 175.1 132.7C178.9 148.1 198.8 150.3 199.5 150.3C199.542 150.302 199.584 150.304 199.626 150.306C201.627 150.382 204.067 149.6 204.7 147.7C205.6 144.5 199.2 140.5 197.5 138.1C195.8 135.7 196.3 132.3 195.4 129.6C193.7 123.4 198.14 120.24 198.14 114.54L198.05 112.75Z"
      fill="#2F8D45"
    />
    <path
      d="M203.4 120.995C203.4 120.996 203.398 120.997 203.398 120.996C201.399 117.099 200.399 115.2 198.4 114.4C194 112.64 187.3 117.29 185.93 121.34C184.19 126.48 185.37 131.85 188.46 136.21C189.96 138.34 191.84 140.19 193.89 141.78C195.71 143.18 198.36 145.93 200.87 145.2C203.53 144.43 205.33 141.04 205.9 138.59C206.74 135.05 206.7 132.29 206.3 129.29C205.701 125.394 204.203 122.695 203.402 120.995C203.402 120.993 203.4 120.994 203.4 120.995Z"
      fill="black"
    />
    <path
      d="M205.255 133.43C205.258 133.43 205.26 133.432 205.26 133.435V133.5C205.19 136.22 204.45 138.59 203.99 139.54C203.29 140.68 202.89 141.54 201.92 142.1C198.63 143.76 193.21 139.26 192.93 139.05C189.29 135.95 188.24 132.15 187.81 130.3C187.38 128.64 187.03 127.18 187.18 125.34C187.77 120.9 191.74 115.49 196.3 116.38C198.01 116.52 199.63 118.04 200.98 120.13C203.47 123.96 205.15 129.72 205.25 132.54C205.26 132.838 205.26 133.127 205.25 133.425C205.25 133.428 205.252 133.43 205.255 133.43Z"
      fill="#DDA26A"
    />
    <path
      d="M205.255 133.43C205.258 133.43 205.26 133.432 205.26 133.435V133.5C205.19 134.33 205.03 135.17 204.75 135.98C204.509 136.736 204.252 137.284 203.98 137.671C203.483 138.379 202.637 138.779 201.783 138.645C201.248 138.56 200.744 138.11 200.573 137.596C200.389 137.045 200.393 136.516 200.06 136.44C199.49 136.23 198.88 137.86 197.54 138.02C197.096 138.056 196.629 137.965 196.231 137.773C195.521 137.431 195.246 136.59 195.456 135.831C195.537 135.54 195.589 135.278 195.42 135.05C195.3 134.883 195.109 134.837 194.878 134.8C194.126 134.679 193.342 134.255 193.198 133.507C193.176 133.396 193.17 133.303 193.17 133.25C193.02 131.6 194.37 131.05 194.02 129.98C193.895 129.638 193.627 129.423 193.328 129.247C192.299 128.637 191.971 127.36 192.895 126.6C192.951 126.554 193.007 126.51 193.06 126.47C193.74 126 194.31 126.21 194.41 125.83C194.52 125.35 193.48 124.93 193.22 123.96C193.05 123.18 193.75 121.94 194.61 121.87C195.402 121.76 196.038 122.471 196.608 122.803C197.059 123.065 197.698 122.861 197.903 122.382C198.122 121.869 197.961 121.283 198.072 120.736C198.135 120.422 198.266 120.133 198.48 119.93C199.762 118.701 201.506 120.87 202.287 122.465C202.954 123.826 203.527 125.288 204 126.7C204.55 128.36 204.93 129.96 205.12 131.24C205.18 131.72 205.23 132.15 205.25 132.54C205.26 132.838 205.26 133.127 205.25 133.425C205.25 133.428 205.252 133.43 205.255 133.43Z"
      fill="#FBB778"
    />
    <path
      d="M205.14 130.95C204.56 131.13 203.75 131.45 202.77 131.62C200.37 132.17 198.35 132.61 197.53 131.36C196.98 130.49 197.02 128.89 197.43 128.05C198.14 126.6 199.07 127.24 202.26 125.85C203.04 125.52 203.61 125.24 204.05 125.21C205.32 126.94 205.29 129.16 205.14 130.95Z"
      fill="black"
    />
    <path
      d="M161.7 148.4C161.4 147.9 160.5 147.5 159.7 147.7C158.5 147.9 158.5 149.3 156.8 150.9C156.12 151.48 155.47 152.1 154.65 152.47C153.99 152.77 153.02 153.17 152.9 154C152.8 155.2 155 156.6 156.4 156.4C157.274 156.225 157.384 155.515 158.801 153.134C159.255 152.372 159.803 151.673 160.387 151.006C161.553 149.677 162.027 148.972 161.7 148.4Z"
      fill="black"
    />
    <path
      d="M179.627 146.875C179.001 146.437 178.423 145.787 177.66 145.795C177.383 145.798 177.114 145.872 176.9 146C176.2 146.4 176 146.7 176 147C175.9 148 177.8 148.2 179.6 150.6C179.986 151.064 180.208 151.453 180.388 151.773C180.87 152.636 181.846 153.142 182.835 153.121C183.572 153.105 184.337 152.837 184.8 152.2C185.3 151.6 185.3 150.6 184.8 149.5C184.51 148.87 183.79 148.74 183.19 148.6C181.859 148.296 180.721 147.641 179.627 146.875Z"
      fill="black"
    />
    <path
      d="M187.705 176.655C187.707 176.653 187.706 176.649 187.703 176.649C185.852 176.319 182.708 175.982 181.2 177.3C180.43 177.97 179.44 178.99 179.91 180.1C180.27 180.96 181.95 182.01 182.85 181.6C183.19 181.44 183.47 181.19 183.79 181C183.92 180.92 184.07 180.86 184.23 180.87C184.46 180.89 184.64 181.08 184.72 181.29C184.97 181.94 184.82 182.62 185.19 183.26C185.77 184.26 186.89 184.2 187.9 184.2C189.96 184.2 192.42 183.45 192.16 180.93C191.93 178.671 189.923 177.062 187.784 176.671C187.781 176.67 187.779 176.67 187.776 176.67C187.75 176.67 187.731 176.67 187.706 176.662C187.703 176.661 187.702 176.658 187.705 176.655Z"
      fill="#3AAF55"
    />
    <path
      d="M160.63 186.46C159.62 186.33 158.61 186.37 157.7 186.7C156 187.3 154.4 188.6 155.6 190.6C156.8 192.6 163.3 194.9 165.6 193.6C166.86 192.73 167.93 190.56 166.83 189.17C166.55 188.82 166.17 188.57 165.78 188.35C164.34 187.52 162.46 186.7 160.62 186.46H160.63Z"
      fill="#3AAF55"
    />
    <path
      d="M173.695 201.27C173.698 201.27 173.699 201.268 173.699 201.265C173.377 200.027 172.229 198.85 171.13 198.5C170.16 198.18 169.11 198.32 168.22 198.81C167.44 199.25 166.81 200.71 165.87 200.37C165.58 200.27 165.32 200.1 165.02 200.04C163.5 199.74 163.1 202.35 163.27 203.34C163.69 205.8 166.76 205.42 168.64 205.24C170.51 205.05 173.01 204.65 173.68 202.58C173.819 202.162 173.81 201.713 173.691 201.275C173.691 201.272 173.693 201.27 173.695 201.27Z"
      fill="#3AAF55"
    />
    <path
      d="M135.24 197.42C134.64 196.91 134.01 196.57 133.45 196.55C131.53 196.47 129.52 199.16 128.59 200.53C127.65 201.9 127.16 203.64 128.4 205C128.9 205.6 130.4 204.4 131 205C131.9 206 131.9 207.7 134.3 207.4C137.9 206.7 135.2 204.8 136 203.2C136.38 202.43 137.5 203.25 137.69 201.9C137.86 200.69 136.63 198.6 135.24 197.42Z"
      fill="#3AAF55"
    />
  </g>
  <path
    d="M285.76 48C285.76 50.88 286.4 53.3067 287.68 55.28C289.013 57.2 290.747 58.64 292.88 59.6C295.067 60.56 297.467 61.04 300.08 61.04C302.747 61.04 305.04 60.6933 306.96 60C308.88 59.3067 310.56 58.4533 312 57.44C313.493 56.3733 314.827 55.28 316 54.16V72.24C313.813 73.7333 311.413 74.9867 308.8 76C306.24 77.0667 302.907 77.6 298.8 77.6C293.947 77.6 289.52 76.9067 285.52 75.52C281.52 74.1333 278.107 72.1333 275.28 69.52C272.453 66.9067 270.267 63.7867 268.72 60.16C267.173 56.5333 266.4 52.48 266.4 48C266.4 43.52 267.173 39.4667 268.72 35.84C270.267 32.2133 272.453 29.0933 275.28 26.48C278.107 23.8667 281.52 21.8667 285.52 20.48C289.52 19.0933 293.947 18.4 298.8 18.4C302.907 18.4 306.24 18.9067 308.8 19.92C311.413 20.9333 313.813 22.2133 316 23.76V41.84C314.827 40.72 313.493 39.6267 312 38.56C310.56 37.4933 308.88 36.64 306.96 36C305.04 35.3067 302.747 34.96 300.08 34.96C297.467 34.96 295.067 35.44 292.88 36.4C290.747 37.36 289.013 38.8267 287.68 40.8C286.4 42.72 285.76 45.12 285.76 48ZM341.837 48C341.837 50.72 342.344 53.12 343.357 55.2C344.37 57.28 345.81 58.9067 347.677 60.08C349.544 61.2 351.784 61.76 354.397 61.76C357.01 61.76 359.25 61.2 361.117 60.08C362.984 58.9067 364.424 57.28 365.437 55.2C366.45 53.12 366.957 50.72 366.957 48C366.957 45.2267 366.477 42.8267 365.517 40.8C364.557 38.72 363.144 37.12 361.277 36C359.464 34.8267 357.17 34.24 354.397 34.24C351.784 34.24 349.544 34.8267 347.677 36C345.81 37.12 344.37 38.72 343.357 40.8C342.344 42.8267 341.837 45.2267 341.837 48ZM323.197 48C323.197 43.52 323.997 39.4667 325.597 35.84C327.197 32.2133 329.41 29.0933 332.237 26.48C335.064 23.8667 338.37 21.8667 342.157 20.48C345.944 19.0933 350.024 18.4 354.397 18.4C358.877 18.4 363.01 19.0933 366.797 20.48C370.584 21.8667 373.89 23.8667 376.717 26.48C379.544 29.0933 381.73 32.2133 383.277 35.84C384.824 39.4667 385.597 43.52 385.597 48C385.597 52.48 384.824 56.5867 383.277 60.32C381.784 64 379.65 67.2 376.877 69.92C374.104 72.64 370.797 74.72 366.957 76.16C363.17 77.6533 358.984 78.4 354.397 78.4C349.81 78.4 345.597 77.6533 341.757 76.16C337.97 74.72 334.69 72.64 331.917 69.92C329.144 67.2 326.984 64 325.437 60.32C323.944 56.5867 323.197 52.48 323.197 48ZM444.523 46.32L453.163 20H474.363L448.763 79.6L429.963 51.76L411.163 79.6L385.562 20H406.763L415.403 46.32L429.963 17.2L444.523 46.32ZM492.951 49.2V42H501.991C503.324 42 504.417 41.8133 505.271 41.44C506.124 41.0667 506.764 40.5333 507.191 39.84C507.617 39.1467 507.831 38.32 507.831 37.36C507.831 35.92 507.351 34.88 506.391 34.24C505.484 33.5467 504.017 33.2 501.991 33.2H497.591V62.8H503.591C504.924 62.8 506.151 62.6933 507.271 62.48C508.391 62.2667 509.297 61.8133 509.991 61.12C510.684 60.4267 511.031 59.3333 511.031 57.84C511.031 56.9333 510.817 56.2133 510.391 55.68C510.017 55.0933 509.484 54.6667 508.791 54.4C508.097 54.08 507.297 53.8667 506.391 53.76C505.537 53.6533 504.604 53.6 503.591 53.6H492.951V44H505.991C508.711 44 511.431 44.32 514.151 44.96C516.924 45.5467 519.457 46.5067 521.751 47.84C524.044 49.1733 525.884 50.9067 527.271 53.04C528.711 55.12 529.431 57.6533 529.431 60.64C529.431 64.3733 528.497 67.36 526.631 69.6C524.817 71.84 522.151 73.4667 518.631 74.48C515.164 75.4933 510.951 76 505.991 76H479.991V20H504.391C508.551 20 512.257 20.5333 515.511 21.6C518.817 22.6667 521.431 24.2667 523.351 26.4C525.271 28.5333 526.231 31.2 526.231 34.4C526.231 37.5467 525.271 40.24 523.351 42.48C521.431 44.6667 518.817 46.3467 515.511 47.52C512.257 48.64 508.551 49.2 504.391 49.2H492.951ZM553.634 48C553.634 50.72 554.14 53.12 555.154 55.2C556.167 57.28 557.607 58.9067 559.474 60.08C561.34 61.2 563.58 61.76 566.194 61.76C568.807 61.76 571.047 61.2 572.914 60.08C574.78 58.9067 576.22 57.28 577.234 55.2C578.247 53.12 578.754 50.72 578.754 48C578.754 45.2267 578.274 42.8267 577.314 40.8C576.354 38.72 574.94 37.12 573.074 36C571.26 34.8267 568.967 34.24 566.194 34.24C563.58 34.24 561.34 34.8267 559.474 36C557.607 37.12 556.167 38.72 555.154 40.8C554.14 42.8267 553.634 45.2267 553.634 48ZM534.994 48C534.994 43.52 535.794 39.4667 537.394 35.84C538.994 32.2133 541.207 29.0933 544.034 26.48C546.86 23.8667 550.167 21.8667 553.954 20.48C557.74 19.0933 561.82 18.4 566.194 18.4C570.674 18.4 574.807 19.0933 578.594 20.48C582.38 21.8667 585.687 23.8667 588.514 26.48C591.34 29.0933 593.527 32.2133 595.074 35.84C596.62 39.4667 597.394 43.52 597.394 48C597.394 52.48 596.62 56.5867 595.074 60.32C593.58 64 591.447 67.2 588.674 69.92C585.9 72.64 582.594 74.72 578.754 76.16C574.967 77.6533 570.78 78.4 566.194 78.4C561.607 78.4 557.394 77.6533 553.554 76.16C549.767 74.72 546.487 72.64 543.714 69.92C540.94 67.2 538.78 64 537.234 60.32C535.74 56.5867 534.994 52.48 534.994 48ZM634.959 20H655.359L635.199 54V76H617.199V54.16L596.959 20H617.359L626.159 38.08L634.959 20ZM264 107.6V92H313.6V107.6H297.6V148H280V107.6H264ZM336.665 120C336.665 122.72 337.172 125.12 338.185 127.2C339.198 129.28 340.638 130.907 342.505 132.08C344.372 133.2 346.612 133.76 349.225 133.76C351.838 133.76 354.078 133.2 355.945 132.08C357.812 130.907 359.252 129.28 360.265 127.2C361.278 125.12 361.785 122.72 361.785 120C361.785 117.227 361.305 114.827 360.345 112.8C359.385 110.72 357.972 109.12 356.105 108C354.292 106.827 351.998 106.24 349.225 106.24C346.612 106.24 344.372 106.827 342.505 108C340.638 109.12 339.198 110.72 338.185 112.8C337.172 114.827 336.665 117.227 336.665 120ZM318.025 120C318.025 115.52 318.825 111.467 320.425 107.84C322.025 104.213 324.238 101.093 327.065 98.48C329.892 95.8667 333.198 93.8667 336.985 92.48C340.772 91.0933 344.852 90.4 349.225 90.4C353.705 90.4 357.838 91.0933 361.625 92.48C365.412 93.8667 368.718 95.8667 371.545 98.48C374.372 101.093 376.558 104.213 378.105 107.84C379.652 111.467 380.425 115.52 380.425 120C380.425 124.48 379.652 128.587 378.105 132.32C376.612 136 374.478 139.2 371.705 141.92C368.932 144.64 365.625 146.72 361.785 148.16C357.998 149.653 353.812 150.4 349.225 150.4C344.638 150.4 340.425 149.653 336.585 148.16C332.798 146.72 329.518 144.64 326.745 141.92C323.972 139.2 321.812 136 320.265 132.32C318.772 128.587 318.025 124.48 318.025 120ZM396.951 140.8V128.16H426.551V140.8H396.951ZM411.591 117.44L404.711 132.88L406.071 136.88L399.991 148H379.991L411.591 88L443.191 148H423.191L417.271 137.44L418.471 132.88L411.591 117.44ZM448.413 92H466.733V148H448.413V92ZM470.413 148H460.573V132.8H469.613C471.159 132.8 472.733 132.667 474.333 132.4C475.933 132.133 477.399 131.573 478.733 130.72C480.066 129.867 481.133 128.587 481.933 126.88C482.786 125.173 483.212 122.88 483.212 120C483.212 117.12 482.786 114.827 481.933 113.12C481.133 111.413 480.066 110.133 478.733 109.28C477.399 108.427 475.933 107.867 474.333 107.6C472.733 107.333 471.159 107.2 469.613 107.2H460.573V92H470.413C476.919 92 482.493 93.12 487.133 95.36C491.826 97.6 495.399 100.8 497.853 104.96C500.359 109.12 501.613 114.133 501.613 120C501.613 125.813 500.359 130.827 497.853 135.04C495.399 139.2 491.826 142.4 487.133 144.64C482.493 146.88 476.919 148 470.413 148ZM298.4 200.8V188H328.16C328.587 192.8 328.213 197.28 327.04 201.44C325.92 205.6 324.08 209.253 321.52 212.4C318.96 215.547 315.733 218 311.84 219.76C307.947 221.52 303.467 222.4 298.4 222.4C293.707 222.4 289.413 221.68 285.52 220.24C281.627 218.8 278.24 216.747 275.36 214.08C272.533 211.413 270.32 208.213 268.72 204.48C267.173 200.747 266.4 196.587 266.4 192C266.4 187.413 267.227 183.307 268.88 179.68C270.533 176 272.827 172.88 275.76 170.32C278.747 167.76 282.213 165.813 286.16 164.48C290.16 163.093 294.507 162.4 299.2 162.4C303.467 162.4 307.227 163.04 310.48 164.32C313.787 165.6 316.667 167.307 319.12 169.44C321.627 171.52 323.813 173.867 325.68 176.48L309.28 183.84C308.32 182.08 307.067 180.533 305.52 179.2C303.973 177.867 301.867 177.2 299.2 177.2C296.587 177.2 294.187 177.76 292 178.88C289.813 179.947 288.053 181.573 286.72 183.76C285.44 185.947 284.8 188.693 284.8 192C284.8 195.253 285.387 198.053 286.56 200.4C287.787 202.747 289.467 204.533 291.6 205.76C293.787 206.987 296.32 207.6 299.2 207.6C300.8 207.6 302.24 207.44 303.52 207.12C304.8 206.8 305.893 206.347 306.8 205.76C307.76 205.173 308.587 204.453 309.28 203.6C309.973 202.747 310.56 201.813 311.04 200.8H298.4ZM345.169 212.8V200.16H374.769V212.8H345.169ZM359.809 189.44L352.929 204.88L354.289 208.88L348.209 220H328.209L359.809 160L391.409 220H371.409L365.489 209.44L366.689 204.88L359.809 189.44ZM417.111 197.12L414.231 220H395.431L405.831 161.2L430.631 191.44L455.431 161.2L465.831 220H447.031L444.151 197.12L430.631 214.8L417.111 197.12ZM486.026 220V206H514.266V220H486.026ZM486.026 178V164H514.266V178H486.026ZM486.026 198V184.4H512.666V198H486.026ZM473.866 164H490.666V220H473.866V164ZM533.287 198.72C534.354 200.587 535.58 202.213 536.967 203.6C538.354 204.933 539.847 205.947 541.447 206.64C543.1 207.333 544.754 207.68 546.407 207.68C547.794 207.68 548.967 207.413 549.927 206.88C550.887 206.293 551.367 205.387 551.367 204.16C551.367 203.413 551.1 202.773 550.567 202.24C550.087 201.707 549.1 201.093 547.607 200.4C546.114 199.707 543.847 198.773 540.807 197.6C539.474 197.067 537.927 196.347 536.167 195.44C534.46 194.533 532.807 193.36 531.207 191.92C529.66 190.48 528.354 188.72 527.287 186.64C526.274 184.56 525.767 182.107 525.767 179.28C525.767 175.6 526.754 172.507 528.727 170C530.7 167.493 533.314 165.6 536.567 164.32C539.82 163.04 543.394 162.4 547.287 162.4C551.5 162.4 555.1 163.04 558.087 164.32C561.127 165.6 563.607 167.2 565.527 169.12C567.5 171.04 568.994 172.96 570.007 174.88L556.967 182.08C556.114 180.747 555.154 179.707 554.087 178.96C553.074 178.16 552.034 177.573 550.967 177.2C549.9 176.827 548.86 176.64 547.847 176.64C546.62 176.64 545.607 176.853 544.807 177.28C544.06 177.707 543.687 178.373 543.687 179.28C543.687 180.4 544.22 181.333 545.287 182.08C546.407 182.773 547.874 183.44 549.687 184.08C551.5 184.667 553.5 185.36 555.687 186.16C557.927 186.96 559.927 187.92 561.687 189.04C563.447 190.107 564.94 191.36 566.167 192.8C567.447 194.24 568.407 195.867 569.047 197.68C569.687 199.44 570.007 201.413 570.007 203.6C570.007 206.693 569.367 209.44 568.087 211.84C566.807 214.187 565.074 216.133 562.887 217.68C560.754 219.227 558.327 220.4 555.607 221.2C552.887 222 550.087 222.4 547.207 222.4C543.207 222.4 539.474 221.733 536.007 220.4C532.594 219.12 529.634 217.333 527.127 215.04C524.62 212.747 522.727 210.187 521.447 207.36L533.287 198.72Z"
    fill="black"
  />
  <path
    d="M574 215.96V214.4H578.96V215.96H577.36V220H575.6V215.96H574ZM581.369 217.712L581.081 220H579.201L580.241 214.12L582.721 217.144L585.201 214.12L586.241 220H584.361L584.073 217.712L582.721 219.48L581.369 217.712Z"
    fill="black"
  />
  <defs>
    <clipPath id="clip0_4_3">
      <rect width="240" height="240" fill="white" />
    </clipPath>
  </defs>
</svg>
