<svg
  width="851"
  height="126"
  viewBox="0 0 851 126"
  fill="none"
  xmlns="http://www.w3.org/2000/svg"
>
  <g filter="url(#filter0_d_22_1527)">
    <path
      d="M63.952 76.904C64.72 73.704 63.696 69.864 63.44 65.512C63.184 60.776 63.952 55.4 63.44 50.92C63.312 49.512 62.672 48.232 62.544 46.952C62.544 45.8 63.056 44.264 63.056 42.6C63.056 40.552 62.032 36.968 61.648 33C61.392 28.776 61.136 20.584 62.16 19.304C62.544 18.792 64.72 19.432 65.232 18.92C65.232 18.792 65.104 18.024 65.232 18.024C66 17.896 67.664 17.768 68.688 18.024C69.072 18.024 69.072 18.792 69.584 18.92C74.192 19.944 80.208 17.256 81.104 21.992C81.104 22.248 81.616 22.504 81.488 22.76C81.232 23.656 81.232 23.528 81.488 25.064C81.616 25.448 81.488 25.448 81.488 26.344C81.744 29.16 82.256 32.104 82.384 34.28C83.152 45.544 82.256 58.984 82.384 71.144C82.384 77.288 82.384 83.304 82.384 88.808C82.384 95.336 81.872 101.096 82 105.448C82 106.472 82.64 108.392 82.384 110.312C82.256 111.08 82 110.696 81.488 112.104C81.36 112.36 81.232 113.768 81.104 113.896C80.208 114.408 75.728 113.896 74.064 113.896C71.632 113.896 68.816 114.024 67.024 113.896C66.384 113.768 65.488 113.256 64.336 113C62.288 112.616 62.032 113.384 60.88 112.104C58.96 110.184 57.296 106.6 55.504 103.784C54.864 102.632 53.84 101.992 53.328 101.096C52.176 99.176 51.536 96.616 50.256 94.568C50 93.928 49.232 93.8 48.976 93.16C48.592 92.648 48.848 92.008 48.464 91.496C48.208 90.984 47.44 90.728 47.184 90.088C46.544 88.936 46.288 88.168 45.392 87.016C45.008 86.504 45.008 85.864 44.496 85.224C44.24 84.84 43.472 84.456 43.216 83.944C42.96 83.432 43.088 82.792 42.832 82.152C42.448 81.768 41.68 81.384 41.424 80.872C41.168 80.232 41.424 79.72 41.04 79.08C40.784 78.696 39.888 78.312 39.76 77.8C39.376 77.16 39.632 76.648 39.248 76.008C38.864 75.368 38.224 74.472 37.456 73.832C36.944 73.192 36.56 71.272 35.792 69.864C35.408 69.224 34.256 68.328 33.616 67.304C32.464 65.64 31.568 61.544 30.928 66.792C30.8 68.072 31.312 72.168 31.312 74.344C31.312 74.6 31.312 75.88 31.312 76.904C31.696 80.872 31.696 86.632 31.824 90.088C31.952 93.416 31.824 97.128 31.824 101.992C31.824 104.68 32.464 113.128 31.824 113.896C31.44 114.28 23.12 113.768 22.096 113.384C21.968 113.384 22.096 113 21.712 113C21.456 113 21.072 113.384 21.2 113.384C20.176 113.128 19.664 112.744 18.64 112.488C14.928 111.976 11.856 112.488 10.704 111.208C9.424 109.8 10.192 106.088 9.808 102.376C9.552 100.2 9.04 99.816 8.912 98.536C8.912 96.872 9.424 93.288 9.424 90.6C9.04 83.048 9.04 73.96 8.528 62.824C8.016 51.944 9.168 41.32 8.912 30.312C8.912 28.52 8.784 25.192 8.912 22.76C9.04 21.352 8.016 20.84 9.808 18.92C10.192 18.536 10.192 17.768 10.704 17.512C11.6 17.256 13.008 18.024 14.16 17.512C14.544 17.384 14.416 16.744 15.056 16.616C15.696 16.616 19.92 15.976 21.2 16.616C21.328 16.744 21.584 17.512 21.712 17.512C25.808 18.536 28.496 16.872 30.416 19.688C31.056 20.712 30.928 22.12 31.824 23.272C32.208 23.784 33.104 24.552 33.616 25.448C34.256 26.728 35.024 28.136 35.792 29.416C36.56 30.824 37.456 32.104 37.968 33C38.352 33.512 38.48 34.536 38.864 35.176C39.248 35.816 39.76 36.2 40.144 36.84C40.784 38.12 41.168 39.656 41.936 40.808C42.32 41.448 43.216 41.448 43.728 42.216C43.984 42.728 43.728 43.752 44.112 44.392C46.16 47.72 48.592 51.56 50.768 55.4C51.024 55.912 51.792 56.552 52.048 57.192C52.176 57.448 51.92 58.088 52.048 58.472C52.176 58.728 52.816 58.728 52.944 58.856C53.328 59.624 53.328 60.392 53.84 61.032C54.096 61.544 54.736 61.928 55.12 62.44C55.376 62.824 55.248 63.336 55.504 63.72C56.784 65.128 57.808 68.072 59.088 70.376C60.368 72.68 62.288 74.6 63.952 76.904ZM135.052 11.24C137.74 10.856 143.884 10.728 148.748 11.24C153.1 11.752 157.708 12.136 160.652 13.032C162.316 13.416 164.364 14.312 165.9 15.208C166.924 15.72 168.204 17.256 169.356 18.28C169.996 18.664 171.916 19.304 172.428 20.456C172.556 20.712 172.3 21.224 172.428 21.352C173.324 22.248 174.732 23.272 175.5 24.424C175.884 24.936 175.628 24.936 176.012 25.32C176.14 25.448 176.78 26.472 177.292 27.112C178.06 28.008 177.932 28.648 178.7 30.568C178.7 30.824 179.468 31.336 179.468 31.464C181.26 37.48 183.308 45.032 183.948 51.688C184.332 56.552 184.972 63.208 184.844 68.84C184.588 73.448 183.692 78.824 183.052 83.816C182.54 87.272 181.9 90.6 180.876 93.928C180.492 94.824 180.236 96.36 179.98 97C179.852 97.256 178.956 97.768 178.7 98.28C178.316 98.92 178.188 99.432 177.804 100.072C177.42 100.456 177.164 101.352 176.908 101.864C176.78 101.992 176.012 102.12 176.012 102.248C175.244 103.912 172.684 106.984 171.148 108.392C170.892 108.648 170.124 108.648 169.868 108.904C169.356 109.16 168.332 111.08 167.692 111.464C167.18 111.848 165.388 112.232 164.108 112.872C162.444 113.64 161.292 114.408 159.244 115.048C156.556 115.816 153.1 115.688 150.028 116.328C149.004 116.584 148.364 117.096 147.468 117.224C144.908 117.48 139.66 117.992 136.844 117.224C136.46 117.096 136.076 116.328 135.948 116.328C133.132 115.816 129.164 116.2 126.348 115.432C125.58 115.304 124.684 114.536 123.66 114.152C121.484 113.256 118.284 111.976 116.236 110.568C115.596 110.184 115.212 109.544 114.444 108.904C113.804 108.392 112.78 108.136 112.268 107.496C110.22 105.576 108.428 102.504 106.508 100.072C105.74 99.048 105.1 98.536 104.716 97.896C104.332 97.128 104.332 95.976 103.82 94.824C103.692 94.312 103.18 94.44 103.052 93.928C103.052 94.184 103.436 93.544 103.436 93.416C103.436 92.904 103.052 93.288 103.052 93.032C101.644 88.68 100.62 83.816 99.852 78.568C98.7 69.864 98.828 57.96 99.468 49.512C99.596 47.848 100.108 46.44 100.364 44.648C100.364 44.648 100.108 43.88 100.364 42.856C100.748 41.064 101.132 38.632 101.644 36.328C101.772 35.688 102.412 35.176 102.54 34.536C102.796 33.64 102.284 32.488 102.54 31.848C102.668 31.464 103.82 30.568 104.332 29.672C104.716 28.904 104.844 27.752 105.228 27.112C105.228 26.856 105.996 26.728 106.124 26.6C108.94 20.328 115.98 15.72 123.66 13.416C124.556 13.16 125.58 12.648 126.348 12.52C128.396 12.136 131.212 12.648 133.772 12.136C134.412 12.008 134.412 11.368 135.052 11.24ZM135.564 32.744C132.876 34.024 129.164 35.688 127.628 37.224C126.476 38.248 124.556 40.936 123.66 42.856C123.02 44.264 122.892 46.056 122.38 48.104C122.124 49.128 121.868 49.64 121.484 50.792C121.484 50.792 121.612 51.176 121.484 51.688C120.716 53.864 120.716 57.832 120.588 60.904C120.332 66.408 120.972 70.76 121.484 74.6C121.74 76.904 121.612 79.08 121.868 80.232C122.252 81.512 123.66 83.048 124.556 84.712C126.86 88.68 126.988 89.192 130.7 91.24C131.852 91.88 133.9 93.288 134.668 93.416C135.82 93.8 137.612 93.672 139.02 93.928C140.812 94.184 142.22 94.824 143.5 94.824C144.908 94.696 144.78 94.056 145.164 93.928C146.06 93.672 146.956 94.056 147.852 93.928C149.388 93.544 151.308 93.416 152.204 93.032C154.252 92.264 156.428 89.96 157.58 88.68C158.092 87.912 158.86 87.4 159.244 86.888C159.628 86.376 159.756 85.224 160.14 84.712C160.396 84.328 160.78 84.2 161.036 83.816C161.292 83.304 161.164 83.048 161.42 82.408C162.188 81 163.34 79.336 163.724 78.056C164.492 74.856 163.852 71.016 164.108 67.048C164.108 66.408 164.492 65.512 164.62 64.872C164.62 64.232 164.62 63.464 164.62 62.696C164.492 54.632 163.34 46.056 161.036 40.68C159.884 37.992 159.628 38.376 157.58 36.712C156.684 36.072 156.044 34.92 155.276 34.536C154.764 34.152 153.484 34.024 152.716 33.64C151.692 33.256 150.924 32.488 150.54 32.36C147.852 31.592 145.164 32.232 142.092 32.36C139.66 32.488 136.716 32.232 135.564 32.744ZM228.551 12.392C230.087 12.136 243.143 10.6 247.111 12.392C247.751 12.648 249.799 12.392 250.951 12.776C252.743 13.416 254.279 15.08 255.815 15.848C257.607 16.872 259.271 17.512 260.679 18.536C262.343 19.688 264.391 21.608 265.927 23.4C266.183 23.656 267.719 26.216 267.719 26.856C267.591 28.648 265.799 29.8 264.263 31.336C263.623 31.848 262.599 32.616 261.959 33C260.423 34.28 259.527 34.792 257.607 36.2C255.687 37.48 252.487 41.832 249.287 40.04C249.031 40.04 249.031 39.272 248.775 39.272C248.135 38.888 247.495 38.632 247.111 37.864C246.727 37.48 246.983 36.968 246.599 36.584C245.319 35.304 243.527 33.64 242.247 33C241.223 32.616 236.743 31.72 234.311 32.232C233.031 32.36 231.367 33.256 230.343 33.896C225.863 36.584 223.047 42.728 222.023 49.384C221.895 50.024 222.535 50.152 222.407 50.664C222.407 50.792 221.639 53.096 221.511 54.12C221.255 58.6 221.767 63.848 222.407 68.712C223.815 78.696 227.015 86.632 235.207 90.216C236.359 90.728 238.919 91.624 240.839 91.496C243.271 91.496 245.575 90.344 247.495 89.32C249.159 88.424 251.207 86.888 252.743 85.352C254.663 83.688 256.199 81 257.607 81C259.527 80.872 264.391 86.248 265.927 88.04C267.207 89.32 268.359 90.856 269.511 92.008C271.175 93.8 272.455 94.056 272.583 96.36C272.711 99.176 270.535 100.584 268.103 103.016C266.695 104.424 265.671 105.576 263.751 106.984C261.447 108.648 257.735 110.312 254.151 111.848C253.255 112.104 252.487 112.872 251.847 113.128C251.079 113.384 249.799 112.872 249.287 113.128C248.647 113.256 248.903 113.896 247.879 114.024C243.271 114.664 238.151 114.408 233.799 114.024C232.519 113.896 232.775 113.384 231.623 113.128C230.727 112.872 229.703 113.384 229.063 113.128C228.295 112.872 227.399 112.104 226.375 111.848C219.591 109.288 212.807 104.936 209.223 99.944C209.095 99.816 208.455 99.56 208.327 99.432C208.199 99.304 208.455 98.792 208.327 98.536C208.199 98.408 207.559 98.28 207.431 98.152C207.303 97.896 207.559 97.512 207.431 97.256C207.303 97.128 206.663 97 206.535 96.872C205.767 94.952 204.487 92.392 203.463 90.216C202.567 88.168 201.543 85.992 200.903 83.688C200.519 82.536 200.775 81 200.391 79.72C200.263 79.08 199.367 77.8 199.111 76.648C198.983 75.88 199.239 75.112 199.111 74.344C198.983 73.448 198.727 72.68 198.727 71.784C198.599 71.4 199.239 71.016 199.111 70.504C198.983 69.736 198.343 68.456 198.215 66.92C198.087 63.72 198.599 60.264 198.727 56.808C198.727 53.608 198.599 50.152 199.111 47.08C199.367 45.672 200.007 44.392 200.391 42.728C200.775 41.192 200.775 39.4 201.287 37.864C201.799 36.584 202.567 35.304 203.079 33.896C203.335 33.256 203.207 32.488 203.463 31.72C203.591 31.592 204.231 31.592 204.359 31.336C204.487 30.952 204.231 30.312 204.359 29.928C204.487 29.8 205.255 29.672 205.255 29.544C205.383 29.288 205.127 28.904 205.255 28.648C205.383 28.52 206.023 28.392 206.151 28.264C206.279 28.008 206.023 27.496 206.151 27.368C206.663 26.6 207.815 25.832 208.327 25.192C208.583 24.808 208.455 24.552 208.839 24.296C209.479 23.528 210.759 21.352 211.911 20.328C212.167 19.944 212.807 20.2 213.191 19.816C213.447 19.688 213.447 19.176 213.575 19.048C215.751 17.512 219.463 16.104 222.407 14.568C224.711 13.416 225.351 12.904 228.551 12.392ZM314.635 10.472C315.275 10.472 320.651 9.83199 322.955 10.472C327.563 11.88 336.651 10.344 342.795 11.368C344.459 11.624 346.379 12.52 346.763 13.16C348.171 15.336 347.019 21.48 346.763 22.76C346.635 23.656 345.995 25.064 345.483 26.728C344.971 27.88 344.459 30.568 344.075 30.696C342.155 31.848 332.043 30.184 328.715 30.312C327.307 30.312 324.491 30.568 324.363 30.696C322.571 31.976 323.723 36.584 323.851 39.144C323.979 40.168 323.851 41.064 323.851 42.216C323.979 50.024 323.979 58.216 324.363 66.792C324.491 70.76 325.003 74.6 325.259 78.696C325.515 88.424 325.643 97.256 326.027 108.52C326.155 111.464 326.795 114.024 326.539 114.28C326.667 114.152 325.003 115.048 324.363 115.176C320.267 115.944 313.483 115.432 308.875 115.176C307.979 115.176 306.827 115.304 305.803 115.176C305.163 115.048 303.627 114.28 303.627 114.28C303.243 113.768 303.371 107.624 303.243 105.064C302.731 96.232 303.243 85.224 302.731 75.624C302.731 74.472 301.963 70.12 301.835 68.072C301.579 63.464 301.579 51.304 301.835 44.392C301.963 43.496 303.243 33.896 301.835 32.488C300.555 31.208 294.667 32.744 292.619 32.872C290.955 33 288.139 32.872 285.579 32.872C283.147 33 280.459 33.64 279.435 32.872C279.051 32.616 277.259 26.344 277.259 25.064C277.259 24.168 277.515 21.864 277.259 18.792C277.131 17 276.491 14.312 276.875 13.544C278.283 10.6 288.523 11.496 294.411 11.368C302.859 11.112 309.643 10.984 314.635 10.472ZM364.669 9.31999C367.869 9.064 373.373 8.936 376.957 9.70399C378.493 10.088 380.285 10.344 380.541 10.6C381.693 12.136 380.157 17.512 380.029 20.328C379.645 27.88 379.645 37.48 379.645 41.832C379.645 44.648 380.285 47.976 380.541 51.56C380.925 61.544 381.181 76.136 384.893 81.896C385.149 82.28 385.533 82.408 385.789 82.792C385.917 83.048 385.917 83.816 386.173 84.072C387.069 84.968 391.421 87.272 393.213 87.528C396.157 88.04 398.205 87.528 400.253 86.248C403.197 84.584 404.477 82.28 406.013 78.312C407.421 74.728 407.549 65.384 407.805 59.496C408.189 48.488 408.957 38.504 407.805 27.752C407.805 27.752 407.293 27.624 407.293 27.368C407.293 26.984 407.805 26.856 407.805 26.856C407.677 23.656 407.549 21.864 407.293 18.536C407.165 15.336 406.525 11.752 407.293 11.112C408.445 9.95999 416.125 10.728 417.917 11.112C418.301 11.112 418.301 11.752 418.813 11.88C419.581 12.264 421.117 12.136 422.269 12.392C423.933 12.648 427.389 12.648 427.517 12.776C428.029 13.288 429.181 21.864 429.309 23.4C429.565 27.624 429.693 32.488 429.693 35.304C429.821 37.096 429.309 39.016 429.309 40.936C429.437 45.032 429.437 51.048 429.309 55.528C429.309 56.552 429.821 57.448 429.693 58.088C429.693 58.856 428.925 59.496 428.925 60.264C428.541 62.824 429.053 66.408 428.925 69.608C428.797 71.4 428.157 73.192 428.029 74.856C427.901 75.88 428.157 77.032 428.029 77.928C427.773 78.824 427.261 79.208 427.133 80.104C427.133 79.976 427.645 80.232 427.517 80.488C427.517 80.872 427.005 83.048 426.621 83.688C426.109 84.968 425.853 87.656 425.341 89.832C424.957 91.24 424.189 92.648 423.549 94.184C422.525 97 422.525 98.92 420.989 100.84C420.605 101.224 419.965 101.48 419.581 102.12C418.685 103.528 418.045 104.808 417.405 105.576C415.357 107.88 411.645 109.928 408.701 111.72C407.293 112.616 405.117 113.512 402.941 114.408C401.021 115.176 397.309 115.688 393.725 115.688C390.781 115.688 386.941 115.432 384.509 114.408C382.717 113.768 381.309 113 379.645 112.232C376.573 110.696 372.733 107.496 370.429 104.296C370.173 103.912 369.661 103.656 369.533 103.4C368.125 101.48 366.973 99.56 365.565 97.256C363.773 94.568 362.493 90.216 361.085 86.248C360.829 85.352 360.061 84.328 359.805 83.176C359.293 81.256 359.293 79.208 358.909 77.416C358.653 75.752 358.397 74.216 358.013 72.168C357.629 69.608 356.989 66.408 356.733 62.568C356.477 57.96 356.861 53.096 356.733 47.976C356.605 43.624 355.965 39.272 355.837 35.304C355.837 30.312 356.605 22.248 356.733 18.536C356.861 16.488 355.965 14.568 356.349 12.776C356.861 10.344 357.245 10.472 358.909 9.70399C359.933 9.31999 362.493 9.448 364.669 9.31999ZM469.559 11.624C469.431 11.624 471.479 10.6 472.631 11.112C472.759 11.24 472.503 11.88 472.631 12.008C472.759 12.136 473.399 12.008 473.527 12.008C478.647 12.904 484.535 11.88 488.503 13.288C489.143 13.544 489.911 14.312 490.679 14.696C492.471 15.336 494.519 15.592 495.927 16.36C496.311 16.616 496.695 17.384 497.207 17.768C498.615 18.664 500.663 19.944 502.071 21.736C502.455 22.248 502.583 23.272 502.967 23.912C503.479 24.552 504.119 24.936 504.247 25.192C504.887 26.6 505.271 28.648 505.655 30.44C505.783 31.08 505.911 32.36 506.039 33.128C506.167 34.024 506.423 35.304 506.551 35.816C506.551 36.456 505.783 36.968 505.655 37.992C505.271 39.4 506.295 40.68 506.039 41.96C506.039 41.96 505.143 43.112 505.143 43.624C505.143 44.008 505.655 44.136 505.655 44.52C505.399 45.8 504.631 47.592 504.247 49C503.351 53.224 503.607 53.224 501.175 56.04C500.663 56.68 500.023 57.576 499.511 58.216C498.103 59.752 496.311 60.392 495.927 62.568C495.159 66.92 498.487 70.248 499.511 72.68C500.023 74.216 500.151 75.88 500.791 77.544C501.047 78.312 501.431 78.952 501.687 79.72C501.943 80.36 502.327 80.872 502.583 81.512C503.095 82.92 503.223 84.84 503.863 86.376C503.991 86.504 504.631 87.016 504.759 87.272C505.783 90.856 507.191 95.08 508.727 99.048C509.239 100.456 510.007 101.224 510.391 103.016C510.391 102.888 510.007 103.272 510.007 103.528C510.135 103.912 511.287 106.472 510.903 107.496C510.135 109.288 505.271 109.928 502.583 110.952C501.687 111.208 500.919 112.104 500.279 112.232C500.151 112.36 492.343 112.872 491.959 112.744C491.191 112.36 490.423 109.672 489.783 107.496C489.271 105.704 489.015 103.528 488.503 101.736C487.863 99.944 486.839 98.408 486.199 96.488C485.687 94.568 485.431 92.264 484.919 90.728C484.279 88.68 483.255 87.784 482.743 86.376C482.231 84.968 482.359 83.048 481.847 81C481.079 77.928 480.055 75.496 478.775 72.296C478.135 70.76 477.239 68.456 476.983 68.328C475.319 67.304 467.639 68.584 466.871 69.608C465.847 71.016 467.127 74.216 467.383 77.16C467.383 77.16 467.895 77.16 467.767 77.544C467.767 77.672 467.255 77.544 467.383 77.928C467.639 79.464 468.151 80.488 468.279 81.512C468.279 82.92 468.535 84.712 468.663 86.376C468.919 88.552 469.559 90.984 469.559 92.008C469.559 93.544 469.047 95.848 469.047 96.488C469.303 98.92 470.199 101.096 470.455 104.808C470.711 107.88 470.967 112.616 469.943 114.024C468.407 116.328 457.783 116.584 453.687 115.816C450.103 115.048 448.567 113.896 448.055 110.056C447.927 109.416 448.439 108.776 448.439 107.88C448.439 107.752 448.055 106.728 448.055 106.088C447.799 103.016 447.287 99.688 447.159 96.872C446.903 93.672 446.519 90.728 446.263 87.656C446.263 87.4 446.391 85.48 446.263 83.688C446.007 82.152 445.495 80.872 445.367 79.72C445.239 78.696 445.879 77.544 445.751 76.264C445.751 74.728 444.983 73.448 444.855 72.68C444.727 70.376 444.983 67.56 444.855 65.256C444.855 62.44 444.087 59.752 444.087 56.808C443.959 56.04 444.471 55.912 444.471 55.144C444.471 53.864 444.215 51.304 444.087 49C443.319 39.784 442.679 32.616 442.679 22.12C442.679 18.152 442.551 14.44 443.191 13.8C444.727 12.008 454.839 12.008 461.239 12.008C464.567 12.008 466.871 12.52 468.663 12.008C468.919 11.88 469.559 11.624 469.559 11.624ZM464.695 28.776C463.159 30.056 464.183 34.792 464.311 35.816C464.567 38.248 464.311 38.248 464.311 40.168C464.183 42.728 464.695 43.88 465.207 45.416C465.079 45.288 464.695 45.544 464.695 45.928C464.951 50.92 474.807 48.104 477.879 47.208C479.031 46.824 480.439 46.568 480.951 46.312C481.079 46.184 481.207 45.544 481.463 45.416C481.847 45.16 482.359 45.288 482.743 45.032C484.407 43.624 487.351 40.808 487.607 39.656C488.247 37.096 486.967 32.744 486.199 31.848C483.383 27.496 474.935 28.648 469.047 28.776C468.023 28.776 467.895 28.392 466.871 28.776C466.359 28.904 465.079 28.392 464.695 28.776ZM581.702 76.904C582.47 73.704 581.446 69.864 581.19 65.512C580.934 60.776 581.702 55.4 581.19 50.92C581.062 49.512 580.422 48.232 580.294 46.952C580.294 45.8 580.806 44.264 580.806 42.6C580.806 40.552 579.782 36.968 579.398 33C579.142 28.776 578.886 20.584 579.91 19.304C580.294 18.792 582.47 19.432 582.982 18.92C582.982 18.792 582.854 18.024 582.982 18.024C583.75 17.896 585.414 17.768 586.438 18.024C586.822 18.024 586.822 18.792 587.334 18.92C591.942 19.944 597.958 17.256 598.854 21.992C598.854 22.248 599.366 22.504 599.238 22.76C598.982 23.656 598.982 23.528 599.238 25.064C599.366 25.448 599.238 25.448 599.238 26.344C599.494 29.16 600.006 32.104 600.134 34.28C600.902 45.544 600.006 58.984 600.134 71.144C600.134 77.288 600.134 83.304 600.134 88.808C600.134 95.336 599.622 101.096 599.75 105.448C599.75 106.472 600.39 108.392 600.134 110.312C600.006 111.08 599.75 110.696 599.238 112.104C599.11 112.36 598.982 113.768 598.854 113.896C597.958 114.408 593.478 113.896 591.814 113.896C589.382 113.896 586.566 114.024 584.774 113.896C584.134 113.768 583.238 113.256 582.086 113C580.038 112.616 579.782 113.384 578.63 112.104C576.71 110.184 575.046 106.6 573.254 103.784C572.614 102.632 571.59 101.992 571.078 101.096C569.926 99.176 569.286 96.616 568.006 94.568C567.75 93.928 566.982 93.8 566.726 93.16C566.342 92.648 566.598 92.008 566.214 91.496C565.958 90.984 565.19 90.728 564.934 90.088C564.294 88.936 564.038 88.168 563.142 87.016C562.758 86.504 562.758 85.864 562.246 85.224C561.99 84.84 561.222 84.456 560.966 83.944C560.71 83.432 560.838 82.792 560.582 82.152C560.198 81.768 559.43 81.384 559.174 80.872C558.918 80.232 559.174 79.72 558.79 79.08C558.534 78.696 557.638 78.312 557.51 77.8C557.126 77.16 557.382 76.648 556.998 76.008C556.614 75.368 555.974 74.472 555.206 73.832C554.694 73.192 554.31 71.272 553.542 69.864C553.158 69.224 552.006 68.328 551.366 67.304C550.214 65.64 549.318 61.544 548.678 66.792C548.55 68.072 549.062 72.168 549.062 74.344C549.062 74.6 549.062 75.88 549.062 76.904C549.446 80.872 549.446 86.632 549.574 90.088C549.702 93.416 549.574 97.128 549.574 101.992C549.574 104.68 550.214 113.128 549.574 113.896C549.19 114.28 540.87 113.768 539.846 113.384C539.718 113.384 539.846 113 539.462 113C539.206 113 538.822 113.384 538.95 113.384C537.926 113.128 537.414 112.744 536.39 112.488C532.678 111.976 529.606 112.488 528.454 111.208C527.174 109.8 527.942 106.088 527.558 102.376C527.302 100.2 526.79 99.816 526.662 98.536C526.662 96.872 527.174 93.288 527.174 90.6C526.79 83.048 526.79 73.96 526.278 62.824C525.766 51.944 526.918 41.32 526.662 30.312C526.662 28.52 526.534 25.192 526.662 22.76C526.79 21.352 525.766 20.84 527.558 18.92C527.942 18.536 527.942 17.768 528.454 17.512C529.35 17.256 530.758 18.024 531.91 17.512C532.294 17.384 532.166 16.744 532.806 16.616C533.446 16.616 537.67 15.976 538.95 16.616C539.078 16.744 539.334 17.512 539.462 17.512C543.558 18.536 546.246 16.872 548.166 19.688C548.806 20.712 548.678 22.12 549.574 23.272C549.958 23.784 550.854 24.552 551.366 25.448C552.006 26.728 552.774 28.136 553.542 29.416C554.31 30.824 555.206 32.104 555.718 33C556.102 33.512 556.23 34.536 556.614 35.176C556.998 35.816 557.51 36.2 557.894 36.84C558.534 38.12 558.918 39.656 559.686 40.808C560.07 41.448 560.966 41.448 561.478 42.216C561.734 42.728 561.478 43.752 561.862 44.392C563.91 47.72 566.342 51.56 568.518 55.4C568.774 55.912 569.542 56.552 569.798 57.192C569.926 57.448 569.67 58.088 569.798 58.472C569.926 58.728 570.566 58.728 570.694 58.856C571.078 59.624 571.078 60.392 571.59 61.032C571.846 61.544 572.486 61.928 572.87 62.44C573.126 62.824 572.998 63.336 573.254 63.72C574.534 65.128 575.558 68.072 576.838 70.376C578.118 72.68 580.038 74.6 581.702 76.904ZM653.13 9.448C655.178 9.31999 667.082 8.936 672.458 9.448C674.762 9.70399 677.706 9.576 678.218 9.83199C678.474 10.088 678.986 13.032 679.498 15.208C680.266 18.408 681.034 21.48 681.674 25.32C681.93 26.984 681.29 28.52 682.058 29.672C682.698 30.568 682.314 33 682.57 35.432C682.698 36.84 683.21 38.12 683.466 39.4C683.594 40.296 683.21 41.32 683.466 41.96C683.594 42.472 684.234 42.728 684.362 43.368C684.362 43.624 683.85 43.752 683.85 44.136C683.978 44.52 684.618 45.544 684.746 46.44C684.874 47.08 684.362 47.08 684.362 47.72C684.362 50.408 685.258 55.4 685.642 58.728C686.538 67.56 687.434 74.344 688.33 82.92C688.97 90.856 689.738 95.208 689.994 103.528C690.122 107.112 689.994 110.952 689.61 111.464C688.842 112.36 686.666 111.08 684.746 111.976C684.618 111.976 684.874 112.744 684.746 112.744C684.234 113.384 666.442 113.256 665.802 112.744C665.162 112.36 664.778 109.16 664.522 106.6C664.138 101.48 664.266 97 664.138 93.032C663.882 90.216 663.242 87.784 663.242 86.376C663.242 85.224 664.266 83.176 664.138 81.128C664.138 81.128 663.114 77.032 662.73 76.776C660.682 75.368 651.21 77.928 650.058 78.056C647.754 78.44 644.81 78.056 643.402 79.336C642.25 80.488 642.634 81.768 642.122 83.816C641.866 84.456 641.482 84.584 641.226 85.48C641.226 85.352 641.866 85.736 641.61 85.992C640.842 86.632 640.842 88.296 640.714 89.064C640.714 89.448 640.33 89.832 640.33 89.96C640.33 90.344 640.586 91.752 640.33 93.032C640.202 93.928 639.562 94.056 639.434 94.824C639.178 95.976 639.306 97.384 639.05 99.176C638.794 101.096 638.154 103.4 637.642 105.704C637.514 106.6 637.258 112.36 636.874 112.744C635.978 113.64 629.578 112.872 628.042 112.744C625.354 112.744 622.41 112.872 619.722 112.744C617.418 112.744 614.09 112.872 613.066 111.464C612.554 110.696 612.938 106.088 613.45 102.632C613.578 101.992 614.218 101.736 614.346 100.968C614.602 100.2 614.218 99.432 614.346 98.664C615.242 94.824 616.138 90.856 617.034 86.888C617.29 85.736 617.546 84.968 617.93 82.92C618.186 80.744 618.186 79.08 618.826 77.16C618.826 77.032 618.698 76.392 618.826 76.264C618.826 76.264 619.594 76.392 619.722 76.264C619.978 75.24 619.466 74.088 619.722 73.192C620.362 69.864 621.514 66.408 622.282 62.696C622.538 61.672 622.41 60.52 622.794 59.624C624.202 54.504 625.866 46.952 627.146 41.064C627.274 40.424 627.914 39.784 628.042 38.888C628.17 37.992 627.786 36.712 628.042 35.816C628.426 34.152 629.578 32.36 630.218 30.056C630.474 29.032 630.346 27.88 630.602 26.6C630.858 25.704 631.242 24.552 631.498 23.528C631.882 22.12 632.65 19.56 633.29 17.384C634.826 12.008 634.186 12.008 639.434 10.728C642.762 9.95999 649.29 9.70399 653.13 9.448ZM652.618 30.568C651.594 31.464 650.954 35.56 650.442 36.712C650.186 37.48 649.802 38.376 649.546 38.888C648.522 42.216 648.522 45.16 647.754 48.616C647.498 50.536 645.706 53.992 646.986 55.144C648.01 56.168 653.258 54.376 654.026 54.248C655.69 54.12 661.578 54.376 662.346 53.48C663.626 51.816 661.578 42.216 661.45 41.064C661.322 40.424 661.578 38.76 661.45 37.096C661.322 35.816 660.042 30.056 660.17 30.056C659.53 29.672 655.306 30.056 654.41 30.056C653.898 30.184 654.154 30.44 654.026 30.568C653.642 30.696 652.874 30.312 652.618 30.568ZM712.58 13.288C713.732 13.16 723.332 12.392 724.868 13.672C724.868 13.672 725.38 16.488 725.764 18.152C727.3 26.344 725.764 39.528 725.764 50.152C725.764 55.912 725.764 61.928 725.252 69.608C725.124 71.272 724.612 74.856 724.356 78.824C724.228 82.536 723.46 87.528 723.972 88.04C724.996 89.32 737.54 88.424 740.228 88.424C743.044 88.424 745.86 88.424 748.548 88.424C751.108 88.424 755.46 88.168 756.484 88.936C758.148 90.088 758.148 96.104 758.276 98.152C758.404 99.432 758.404 101.48 758.276 103.4C758.148 105.448 758.404 107.88 757.892 108.648C757.508 109.16 753.796 110.696 753.028 110.952C750.852 111.208 748.42 110.696 746.372 110.952C745.348 110.952 744.068 111.464 742.404 111.72C741.764 111.976 741.124 111.848 740.228 112.232C739.716 112.36 739.332 112.616 738.436 112.616C733.828 113.128 726.532 113.128 720.9 113.128C717.956 113.128 714.884 113.128 711.684 113.128C708.484 113 703.876 113.128 703.364 112.616C702.98 112.488 702.212 110.184 701.956 109.16C701.188 105.192 702.084 102.504 702.468 98.152C702.852 91.624 702.468 84.584 702.468 77.032C702.468 63.592 701.956 49.128 701.956 35.304C701.956 28.648 700.804 17.768 702.852 14.952C704.516 12.776 709.508 13.416 712.58 13.288ZM798.723 12.52C799.491 12.392 809.091 10.984 810.627 12.904C811.011 13.416 813.059 13.416 814.595 13.8C817.667 14.696 820.355 15.464 822.915 16.872C823.811 17.384 825.091 17.768 825.987 18.664C826.115 18.792 826.243 19.432 826.499 19.56C827.139 20.072 828.163 20.072 828.675 20.456C829.699 21.224 834.179 25.576 834.307 26.984C834.435 28.136 832.003 32.232 831.235 33.128C830.723 33.768 829.827 34.152 829.571 34.536C827.651 36.456 824.963 39.656 822.531 39.784C819.459 39.784 814.979 34.536 812.419 33.128C811.267 32.616 809.091 31.848 807.555 31.464C805.891 30.952 804.867 30.184 801.795 30.568C798.979 30.952 794.627 33.64 793.859 36.712C791.939 45.8 801.667 48.488 807.555 50.792C808.579 51.176 809.603 51.688 810.627 52.072C814.211 53.352 816.003 54.12 819.459 56.04C822.275 57.576 824.707 58.728 827.267 60.392C828.803 61.416 830.339 62.184 832.131 63.464C832.515 63.848 832.643 64.616 833.027 64.872C833.411 65.128 834.051 64.872 834.307 65.256C834.819 65.768 834.819 66.28 835.203 67.048C835.587 67.56 836.227 67.816 836.611 68.328C837.123 69.096 837.635 69.736 838.275 70.504C838.659 71.016 838.915 72.296 839.683 73.576C839.811 73.96 840.707 74.6 840.963 75.368C841.091 75.88 841.219 77.16 841.347 78.056C842.115 81.896 842.243 90.088 840.963 93.928C840.579 94.952 840.451 95.976 840.067 97C839.683 97.896 839.171 98.792 838.787 99.56C838.019 101.096 837.379 102.76 836.099 104.424C835.715 105.064 834.947 105.448 834.307 106.216C832.515 108.52 832.131 110.184 829.571 111.464C828.803 111.848 828.419 111.976 827.779 112.36C825.731 113.512 823.939 114.408 821.123 115.432C820.099 115.816 818.563 116.584 817.667 116.712C815.235 117.096 811.651 116.712 807.043 116.712C803.715 116.712 799.875 117.224 796.547 116.712C794.371 116.456 791.427 115.176 788.611 114.152C785.795 113.128 782.851 112.104 781.187 111.08C780.931 110.952 780.803 110.184 780.675 110.184C780.419 110.056 780.035 110.312 779.779 110.184C778.755 109.416 777.219 107.368 775.811 106.216C775.427 105.704 774.403 105.576 774.147 105.32C773.763 105.064 773.507 103.912 773.251 103.528C771.971 102.12 770.691 101.224 770.563 98.664C770.563 97.256 770.435 97.512 771.075 96.488C771.843 94.824 773.507 92.904 775.427 91.24C775.683 90.984 776.451 90.984 776.707 90.728C778.115 89.704 780.163 85.992 782.851 85.992C784.771 85.992 785.411 87.144 786.435 88.168C787.331 89.064 788.099 90.344 788.995 91.24C790.019 92.136 791.427 92.52 792.579 93.416C793.603 94.184 794.499 95.08 795.651 95.592C796.675 96.104 798.339 96.488 800.003 97C800.771 97.128 801.923 96.744 802.691 97C803.075 97.128 803.075 97.64 804.483 97.768C806.659 98.024 809.987 98.408 812.419 97.768C816.259 97 821.891 91.496 820.739 84.2C820.099 80.616 817.027 78.44 814.083 76.264C811.139 74.088 806.403 72.168 802.307 70.504C798.083 68.84 792.835 66.536 788.611 63.976C787.331 63.208 785.411 62.184 783.747 60.904C783.363 60.648 783.235 59.88 782.851 59.624C782.467 59.24 781.955 59.496 781.571 59.112C780.931 58.472 780.547 57.32 779.779 56.424C779.011 55.528 778.115 54.888 777.219 53.864C776.835 53.48 774.915 50.664 774.531 49.896C774.275 49.256 774.019 47.848 773.635 46.824C772.611 43.496 772.099 38.248 772.739 33.64C773.251 30.312 774.019 28.904 775.427 26.088C776.963 23.272 777.475 22.376 779.779 20.456C781.443 19.048 783.875 17.128 786.435 15.976C789.891 14.44 793.859 13.672 797.827 12.52C798.083 12.392 798.467 12.52 798.723 12.52Z"
      fill="white"
    />
  </g>
  <defs>
    <filter
      id="filter0_d_22_1527"
      x="0.0161133"
      y="0.936005"
      width="850.227"
      height="125.056"
      filterUnits="userSpaceOnUse"
      color-interpolation-filters="sRGB"
    >
      <feFlood flood-opacity="0" result="BackgroundImageFix" />
      <feColorMatrix
        in="SourceAlpha"
        type="matrix"
        values="0 0 0 0 0 0 0 0 0 0 0 0 0 0 0 0 0 0 127 0"
        result="hardAlpha"
      />
      <feOffset />
      <feGaussianBlur stdDeviation="4" />
      <feComposite in2="hardAlpha" operator="out" />
      <feColorMatrix
        type="matrix"
        values="0 0 0 0 1 0 0 0 0 1 0 0 0 0 1 0 0 0 0.25 0"
      />
      <feBlend
        mode="normal"
        in2="BackgroundImageFix"
        result="effect1_dropShadow_22_1527"
      />
      <feBlend
        mode="normal"
        in="SourceGraphic"
        in2="effect1_dropShadow_22_1527"
        result="shape"
      />
    </filter>
  </defs>
</svg>
